/* XPM */
static char *_1815fe6a4384001b2bf408381d55f26[] = {
/* columns rows colors chars-per-pixel */
"104 100 55 1 ",
"  c black",
". c gray2",
"X c gray4",
"o c gray5",
"O c gray6",
"+ c #121213",
"@ c #131314",
"# c #161617",
"$ c #1D1D1E",
"% c #222223",
"& c #242425",
"* c #262627",
"= c #272727",
"- c gray16",
"; c #2D2D2F",
": c #313131",
"> c #323234",
", c #353537",
"< c #38383B",
"1 c #3A3A3C",
"2 c #3C3C3E",
"3 c gray25",
"4 c #434345",
"5 c #474749",
"6 c #49494B",
"7 c #4C4C4E",
"8 c #4E4E4E",
"9 c gray35",
"0 c #5D5D5E",
"q c #606061",
"w c #656565",
"e c #6A6A6A",
"r c gray45",
"t c #7B7B7B",
"y c gray49",
"u c #932424",
"i c #FB3D3D",
"p c #2E8F97",
"a c #808080",
"s c #868686",
"d c gray57",
"f c #959595",
"g c #9A9A9A",
"h c #9D9D9E",
"j c #A2A2A2",
"k c gray64",
"l c #A5A5A5",
"z c gray69",
"x c #FF9CBB",
"c c #FF9DBC",
"v c gray77",
"b c #C6C6C6",
"n c #CDCDCD",
"m c gray96",
"M c gray100",
/* pixels */
"pppppppppppppppppppppppppppppppppppppppppppppppppppppppppppppppppppppppppppppppppppppppppppppppppppppppp",
"pppppppppppppppppppppppppppppppppppppppppppppppppppppppppppppppppppppppppppppppppppppppppppppppppppppppp",
"pppppppppppppppppppppppppppppppppppppppppppppppppppppppppppppppppppppppppppppppppppppppppppppppppppppppp",
"ppppppppppppppppppppppppppppppppppppppppppppppppppp  ppppppppppppppppppppppppppppppppppppppppppppppppppp",
"ppppppppppppppppppppppppppppppppppppppppppppppppppp    ppppppppppppppppppppppppppppppppppppppppppppppppp",
"ppppppppppppppppppppppppppppppppppppppppppppppppppp     pppppppppppppppppppppppppppppppppppppppppppppppp",
"ppppppppppppppppppppppppppppppppppppppppppppppppppp  111  pppppppppppppppppppppppppppppppppppppppppppppp",
"ppppppppppppppppppppppppppppppppppppppppppppppppppp 11111  ppppppppppppppppppppppppppppppppppppppppppppp",
"ppppppppppppppppppppppppppppppppppppppppppppppppppp 111111 ppppppppppppppppppppppppppppppppppppppppppppp",
"ppppppppppppppppppppppppppppppppppppppppppppppppppp 111111+    ++#+ pppppppppppppppppppppppppppppppppppp",
"ppppppppppppppppppppppppppppppppppppppppppppppppppp 1111111    1111   pppppppppppppppppppppppppppppppppp",
"ppppppppppppppppppppppppppppppppppppppppppppppppppp 11111     1111111   -ppppppppppppppppppppppppppppppp",
"ppppppppppppppppppppppppppppppppppppppppppppppppppp 111   1111111111111=  pppppppppppppppppppppppppppppp",
"ppppppppppppppppppppppppppppppppppppppppppppppppppp 11  1111111a111111111  ppppppppppppppppppppppppppppp",
"ppppppppppppppppppppppppppppppppppppppppppppppppppp  1 111111<aa1111111111   ppppppppppppppppppppppppppp",
"ppppppppppppppppppppppppppppppppppppppppppppppppppp    111111<aa111111111111   ppppppppppppppppppppppppp",
"pppppppppppppppppppppppppppppppppppppppppppppppppppp  11a11aaaaa111111<<<2<221 oOooo+ooooOoooo.ppppppppp",
"pppppppppppppppppppppppppppppppppppppppppppppppppppp  1aa12aaaaaa1111s<12<2<<2<21@  <1    1121   ppppppp",
"pppppppppppppppppppppppppppppppppppppppppppppppppppp #1ar17aaaaaa1117a74<2<22<2<1$# :1### ::,1#: ppppppp",
"pppppppppppppppppppppppppppppppppppppppppppppppppppp 1qa11aabbaaa11qaaaq2<2<<2<2111  =1q1*==@=1a== ppppp",
"pppppppppppppppppppppppppppppppppppppppppppppppppppp 1aa11aaMMaaa11aaaaq1111112<111   1a1111  1a11  pppp",
"pppppppppppppppppppppppppppppppppppppppppppppppppppp 1aa1aaMMMaaa1aaaaaq111111<2111   1a111<   11aa pppp",
"pppppppppppppppppppppppppppppppppppppppppppppppppppp 2aaaaaMMMMaaaaaaaaq11111<2<%    11aa111;  aaaa  ppp",
"pppppppppppppppppppppppppppppppppppppppppppppppppppp aaaaaMMMMMMaaaaaaaq11111       1111a111;   1111 ppp",
"pppppppppppppppppppppppppppppppppppppppppppppppppppp M    MMMMMM     Mrya11   iiu  1111aa111; M aaaa  pp",
"pppppppppppppppppppppppppppppppppppppppppppppppppppp MMMMMMMMMMMMMMMMMMva11 ii  -111aaaa1113w M aaaaa pp",
"pppppppppppppppppppppppppppppppppppppppppppppppppppp MMMMMMMMMMMMMMMMMMbaaa    aa6111aaaaaaae M 111aa pp",
"pppppppppppppppppppppppppppppppppppppppppppppppppppp  MMMMcccMMMMMMMMMMbaa   aaaaaa11aaaaaat  M aa111 pp",
"ppppppppppppppppppppppppppppppppppppppppppppppppppppp MMMMMxMMMMMMMMMhls00 99aaaaaaw10aaaanb9zg 0awww pp",
"ppppppppppppppppppppppppppppppppppppppppppppppppppppp MMMMMMMMMMMMMMM ,,,2 aaaaaaaaa<:asarMmaM  2aaaa pp",
"ppppppppppppppppppppppppppppppppppppppppppppppppppppp  MMM M   MMMMMMMraa  aaaaaaaaaaaa aMMmaM a11aaa pp",
"pppppppppppppppppppppppppppppppppppppppppppppppppppppp  MMMMMMMMMMMMMMMj  aaaa11waaaaaa MMMm   aa11aa pp",
"pppppppppppppppppppppppppppppppppppppppppppppppppppppppp MMMMMMMMMMMM    aaaaaa11raaaaa MMMm  aaaa11 ppp",
"ppppppppppppppppppppppppppppppppppppppppppppppppppppppppp                aaaMaaa021aaa  MM  3aa1aaaa ppp",
"pppppppppppppppppppppppppppppppppp                ppppppp                  aMMaaa5<        X11a11aa  ppp",
"ppppppppppppppppppppppppppppppppp                pppppppp               p   MMMaa-     o 11111aa11  pppp",
"pppppppppppppppppppppppppppppppp                ppppppppp              pp   MMMMM7     + 11111aa   ppppp",
"ppppppppppppppppppppppppppppppp                pppppppppp             ppp    MaMM7     +         ppppppp",
"pppppppppppppppppppppppppppppp                ppppppppppp            pppp    daMj+     .  pppppppppppppp",
"ppppppppppppppppppppppppppppp                pppppppppppp           ppppp    ysMf         pppppppppppppp",
"pppppppppppppppppppppppppppp                ppppppppppppp          pppppp     MMf         pppppppppppppp",
"ppppppppppppppppppppppppppp                pppppppppppppp         ppppppp     M           pppppppppppppp",
"pppppppppppppppppppppppppp                ppppppppppppppp        pppppppp                 pppppppppppppp",
"ppppppppppppppppppppppppp                pppppppppppppppp       ppppppppp                 pppppppppppppp",
"pppppppppppppppppppppppp                ppppppppppppppppp      pppppppppp                 pppppppppppppp",
"ppppppppppppppppppppppp                pppppppppppppppppp     ppppppppppp                 pppppppppppppp",
"pppppppppppppppppppppp                ppppppppppppppppppp    pppppppppppp                 pppppppppppppp",
"ppppppppppppppppppppp                pppppppppppppppppppp   ppppppppppppp                 pppppppppppppp",
"pppppppppppppppppppp                ppppppppppppppppppppp  pppppppppppppp                 pppppppppppppp",
"ppppppppppppppppppp                pppppppppppppppppppppp ppppppppppppppp                 pppppppppppppp",
"pppppppppppppppppp                ppppppppppppppppppppppppppppppppppppppp                ppppppppppppppp",
"ppppppppppppppppp                ppppppppppppppppppppppppppppppppppppppp                pppppppppppppppp",
"pppppppppppppppp                ppppppppppppppppppppppppppppppppppppppp                ppppppppppppppppp",
"ppppppppppppppp                ppppppppppppppppppppppppppppppppppppppp                pppppppppppppppppp",
"pppppppppppppp                ppppppppppppppppppppppppppppppppppppppp                ppppppppppppppppppp",
"ppppppppppppp                ppppppppppppppppppppppppppppppppppppppp                pppppppppppppppppppp",
"pppppppppppp                ppppppppppppppppppppppppppppppppppppppp                ppppppppppppppppppppp",
"ppppppppppp                ppppppppppppppppppppppppppppppppppppppp                pppppppppppppppppppppp",
"pppppppppp                ppppppppppppppppppppppppppppppppppppppp                ppppppppppppppppppppppp",
"ppppppppp                ppppppppppppppppppppppppppppppppppppppp                pppppppppppppppppppppppp",
"pppppppp                ppppppppppppppppppppppppppppppppppppppp                ppppppppppppppppppppppppp",
"ppppppp                ppppppppppppppppppppppppppppppppppppppp                pppppppppppppppppppppppppp",
"pppppp                ppppppppppppppppppppppppppppppppppppppp                ppppppppppppppppppppppppppp",
"ppppp                ppppppppppppppppppppppppppppppppppppppp                pppppppppppppppppppppppppppp",
"pppp                ppppppppppppppppppppppppppppppppppppppp                ppppppppppppppppppppppppppppp",
"ppp                ppppppppppppppppppppppppppppppppppppppp                pppppppppppppppppppppppppppppp",
"pp                                                ppppppp                pppppppppppppppp pppppppppppppp",
"pp                                                ppppppp                ppppppppppppppp  pppppppppppppp",
"pp                                                ppppppp                pppppppppppppp   pppppppppppppp",
"pp                                                ppppppp                ppppppppppppp    pppppppppppppp",
"pp                                                ppppppp                pppppppppppp     pppppppppppppp",
"pp                                                ppppppp                ppppppppppp      pppppppppppppp",
"pp                                                ppppppp                pppppppppp       pppppppppppppp",
"pp                                                ppppppp                ppppppppp        pppppppppppppp",
"pp                                                ppppppp                pppppppp         pppppppppppppp",
"pp                                                ppppppp                ppppppp          pppppppppppppp",
"pp                                                ppppppp                pppppp           pppppppppppppp",
"pp                                                ppppppp                ppppp            pppppppppppppp",
"pp                                                ppppppp                pppp             pppppppppppppp",
"pppppppppppppppppppppppppppppppppp                ppppppp                ppp              pppppppppppppp",
"pppppppppppppppppppppppppppppppppp                ppppppp                pp               pppppppppppppp",
"pppppppppppppppppppppppppppppppppp                ppppppp                p                pppppppppppppp",
"pppppppppppppppppppppppppppppppppp                ppppppp                                 pppppppppppppp",
"pppppppppppppppppppppppppppppppppp                pppppppppppppppppppppppppppppppppppppppppppppppppppppp",
"pppppppppppppppppppppppppppppppppp                pppppppppppppppppppppppppppppppppppppppppppppppppppppp",
"pppppppppppppppppppppppppppppppppp                pppppppppppppppppppppppppppppppppppppppppppppppppppppp",
"pppppppppppppppppppppppppppppppppp                pppppppppppppppppppppppppppppppppppppppppppppppppppppp",
"pppppppppppppppppppppppppppppppppp                pppppppppppppppppppppppppppppppppppppppppppppppppppppp",
"pppppppppppppppppppppppppppppppppp                pppppppppppppppppppppppppppppppppppppppppppppppppppppp",
"pppppppppppppppppppppppppppppppppp                pppppppppppppppppppppppppppppppppppppppppppppppppppppp",
"pppppppppppppppppppppppppppppppppp                pppppppppppppppppppppppppppppppppppppppppppppppppppppp",
"pppppppppppppppppppppppppppppppppp                pppppppppppppppppppppppppppppppppppppppppppppppppppppp",
"pppppppppppppppppppppppppppppppppp                pppppppppppppppppppppppppppppppppppppppppppppppppppppp",
"pppppppppppppppppppppppppppppppppp                pppppppppppppppppppppppppppppppppppppppppppppppppppppp",
"pppppppppppppppppppppppppppppppppp                pppppppppppppppppppppppppppppppppppppppppppppppppppppp",
"pppppppppppppppppppppppppppppppppp                pppppppppppppppppppppppppppppppppppppppppppppppppppppp",
"pppppppppppppppppppppppppppppppppppppppppppppppppppppppppppppppppppppppppppppppppppppppppppppppppppppppp",
"pppppppppppppppppppppppppppppppppppppppppppppppppppppppppppppppppppppppppppppppppppppppppppppppppppppppp",
"pppppppppppppppppppppppppppppppppppppppppppppppppppppppppppppppppppppppppppppppppppppppppppppppppppppppp",
"pppppppppppppppppppppppppppppppppppppppppppppppppppppppppppppppppppppppppppppppppppppppppppppppppppppppp"
};
